{
  "accessors": [
    {
      "bufferView": 2,
      "componentType": 5126,
      "count": 65532,
      "max": [
        1.1018903255462646,
        0.8697913289070129,
        0.4889853596687317
      ],
      "min": [
        -1.1066032648086548,
        0.06928464770317078,
        -0.5379492044448853
      ],
      "type": "VEC3"
    },
    {
      "bufferView": 2,
      "byteOffset": 786384,
      "componentType": 5126,
      "count": 65532,
      "max": [
        1.0,
        0.9999958276748657,
        0.9999765157699585
      ],
      "min": [
        -0.9999964833259583,
        -0.9999362826347351,
        -0.9999585151672363
      ],
      "type": "VEC3"
    },
    {
      "bufferView": 3,
      "componentType": 5126,
      "count": 65532,
      "max": [
        0.9999533295631409,
        0.9999936819076538,
        1.0,
        1.0
      ],
      "min": [
        -0.999999463558197,
        -1.0,
        -0.9999996423721313,
        -1.0
      ],
      "type": "VEC4"
    },
    {
      "bufferView": 1,
      "componentType": 5126,
      "count": 65532,
      "max": [
        0.9939770102500916,
        0.9977120161056519
      ],
      "min": [
        0.0023159999400377274,
        0.0022730000782757998
      ],
      "type": "VEC2"
    },
    {
      "bufferView": 1,
      "byteOffset": 524256,
      "componentType": 5126,
      "count": 65532,
      "max": [
        0.9939770102500916,
        0.9977120161056519
      ],
      "min": [
        0.0023159999400377274,
        0.0022730000782757998
      ],
      "type": "VEC2"
    },
    {
      "bufferView": 0,
      "componentType": 5125,
      "count": 65532,
      "type": "SCALAR"
    },
    {
      "bufferView": 2,
      "byteOffset": 1572768,
      "componentType": 5126,
      "count": 50994,
      "max": [
        1.0985991954803467,
        0.8697913289070129,
        0.48602336645126343
      ],
      "min": [
        -1.1088637113571167,
        0.06928464770317078,
        -0.5326440334320068
      ],
      "type": "VEC3"
    },
    {
      "bufferView": 2,
      "byteOffset": 2184696,
      "componentType": 5126,
      "count": 50994,
      "max": [
        0.9999974370002747,
        0.9999709129333496,
        0.9999803900718689
      ],
      "min": [
        -0.9999925494194031,
        -0.9993270039558411,
        -0.9999864101409912
      ],
      "type": "VEC3"
    },
    {
      "bufferView": 3,
      "byteOffset": 1048512,
      "componentType": 5126,
      "count": 50994,
      "max": [
        0.9999914765357971,
        0.9999791383743286,
        0.9999939799308777,
        1.0
      ],
      "min": [
        -0.9999986290931702,
        -0.9999743700027466,
        -0.9999999403953552,
        -1.0
      ],
      "type": "VEC4"
    },
    {
      "bufferView": 1,
      "byteOffset": 1048512,
      "componentType": 5126,
      "count": 50994,
      "max": [
        0.9771339893341064,
        0.9430819749832153
      ],
      "min": [
        0.0023849999997764826,
        0.0022730000782757998
      ],
      "type": "VEC2"
    },
    {
      "bufferView": 1,
      "byteOffset": 1456464,
      "componentType": 5126,
      "count": 50994,
      "max": [
        0.9771339893341064,
        0.9430819749832153
      ],
      "min": [
        0.0023849999997764826,
        0.0022730000782757998
      ],
      "type": "VEC2"
    },
    {
      "bufferView": 0,
      "byteOffset": 262128,
      "componentType": 5125,
      "count": 50994,
      "type": "SCALAR"
    },
    {
      "bufferView": 2,
      "byteOffset": 2796624,
      "componentType": 5126,
      "count": 96,
      "max": [
        1.0802807807922363,
        0.07199971377849579,
        0.40618932247161865
      ],
      "min": [
        -1.0802807807922363,
        0.0001462673972127959,
        -0.40618932247161865
      ],
      "type": "VEC3"
    },
    {
      "bufferView": 2,
      "byteOffset": 2797776,
      "componentType": 5126,
      "count": 96,
      "max": [
        0.9732418656349182,
        1.0,
        0.9906058311462402
      ],
      "min": [
        -0.9732418656349182,
        -1.0,
        -0.9906058311462402
      ],
      "type": "VEC3"
    },
    {
      "bufferView": 3,
      "byteOffset": 1864416,
      "componentType": 5126,
      "count": 96,
      "max": [
        1.0,
        0.9645754098892212,
        0.45177704095840454,
        1.0
      ],
      "min": [
        -1.0,
        0.0,
        -0.45177704095840454,
        -1.0
      ],
      "type": "VEC4"
    },
    {
      "bufferView": 1,
      "byteOffset": 1864416,
      "componentType": 5126,
      "count": 96,
      "max": [
        0.875,
        1.0
      ],
      "min": [
        0.125,
        0.0
      ],
      "type": "VEC2"
    },
    {
      "bufferView": 1,
      "byteOffset": 1865184,
      "componentType": 5126,
      "count": 96,
      "max": [
        0.875,
        1.0
      ],
      "min": [
        0.125,
        0.0
      ],
      "type": "VEC2"
    },
    {
      "bufferView": 1,
      "byteOffset": 1865952,
      "componentType": 5126,
      "count": 96,
      "max": [
        0.875,
        1.0
      ],
      "min": [
        0.125,
        0.0
      ],
      "type": "VEC2"
    },
    {
      "bufferView": 1,
      "byteOffset": 1866720,
      "componentType": 5126,
      "count": 96,
      "max": [
        0.875,
        1.0
      ],
      "min": [
        0.125,
        0.0
      ],
      "type": "VEC2"
    },
    {
      "bufferView": 1,
      "byteOffset": 1867488,
      "componentType": 5126,
      "count": 96,
      "max": [
        0.875,
        1.0
      ],
      "min": [
        0.125,
        0.0
      ],
      "type": "VEC2"
    },
    {
      "bufferView": 0,
      "byteOffset": 466104,
      "componentType": 5125,
      "count": 144,
      "type": "SCALAR"
    }
  ],
  "asset": {
    "extras": {
      "author": "ironfire0307 (https://sketchfab.com/ironfire0307)",
      "license": "CC-BY-4.0 (http://creativecommons.org/licenses/by/4.0/)",
      "source": "https://sketchfab.com/3d-models/velvet-sofa-a0f769364b454c25b59b5228435f7fb6",
      "title": "Velvet Sofa ( диван )"
    },
    "generator": "Sketchfab-15.43.0",
    "version": "2.0"
  },
  "bufferViews": [
    {
      "buffer": 0,
      "byteLength": 466680,
      "name": "floatBufferViews",
      "target": 34963
    },
    {
      "buffer": 0,
      "byteLength": 1868256,
      "byteOffset": 466680,
      "byteStride": 8,
      "name": "floatBufferViews",
      "target": 34962
    },
    {
      "buffer": 0,
      "byteLength": 2798928,
      "byteOffset": 2334936,
      "byteStride": 12,
      "name": "floatBufferViews",
      "target": 34962
    },
    {
      "buffer": 0,
      "byteLength": 1865952,
      "byteOffset": 5133864,
      "byteStride": 16,
      "name": "floatBufferViews",
      "target": 34962
    }
  ],
  "buffers": [
    {
      "byteLength": 6999816,
      "uri": "scene.bin"
    }
  ],
  "images": [
    {
      "uri": "textures/SofaEuropaMEbel_Model_2_u1_v1_baseColor.jpeg"
    },
    {
      "uri": "textures/SofaEuropaMEbel_Model_2_u1_v1_normal.jpeg"
    },
    {
      "uri": "textures/Raw_Wood_baseColor.jpeg"
    },
    {
      "uri": "textures/Raw_Wood_metallicRoughness.png"
    },
    {
      "uri": "textures/Raw_Wood_normal.jpeg"
    }
  ],
  "materials": [
    {
      "doubleSided": true,
      "name": "SofaEuropaMEbel_Model_2_u1_v1",
      "normalTexture": {
        "index": 1,
        "scale": 0.4,
        "texCoord": 1
      },
      "pbrMetallicRoughness": {
        "baseColorTexture": {
          "index": 0
        },
        "metallicFactor": 0.0
      }
    },
    {
      "doubleSided": true,
      "name": "Raw_Wood",
      "normalTexture": {
        "index": 4
      },
      "pbrMetallicRoughness": {
        "baseColorTexture": {
          "index": 2
        },
        "metallicFactor": 0.0,
        "metallicRoughnessTexture": {
          "index": 3
        }
      }
    }
  ],
  "meshes": [
    {
      "name": "Object_0",
      "primitives": [
        {
          "attributes": {
            "NORMAL": 1,
            "POSITION": 0,
            "TANGENT": 2,
            "TEXCOORD_0": 3,
            "TEXCOORD_1": 4
          },
          "indices": 5,
          "material": 0,
          "mode": 4
        }
      ]
    },
    {
      "name": "Object_1",
      "primitives": [
        {
          "attributes": {
            "NORMAL": 7,
            "POSITION": 6,
            "TANGENT": 8,
            "TEXCOORD_0": 9,
            "TEXCOORD_1": 10
          },
          "indices": 11,
          "material": 0,
          "mode": 4
        }
      ]
    },
    {
      "name": "Object_2",
      "primitives": [
        {
          "attributes": {
            "NORMAL": 13,
            "POSITION": 12,
            "TANGENT": 14,
            "TEXCOORD_0": 15,
            "TEXCOORD_1": 16,
            "TEXCOORD_2": 17,
            "TEXCOORD_3": 18,
            "TEXCOORD_4": 19
          },
          "indices": 20,
          "material": 1,
          "mode": 4
        }
      ]
    }
  ],
  "nodes": [
    {
      "children": [
        1
      ],
      "matrix": [
        1.0,
        0.0,
        0.0,
        0.0,
        0.0,
        2.220446049250313e-16,
        -1.0,
        0.0,
        0.0,
        1.0,
        2.220446049250313e-16,
        0.0,
        0.0,
        0.0,
        0.0,
        1.0
      ],
      "name": "Sketchfab_model"
    },
    {
      "children": [
        2
      ],
      "name": "root"
    },
    {
      "children": [
        3
      ],
      "matrix": [
        1.0,
        0.0,
        0.0,
        0.0,
        0.0,
        2.220446049250313e-16,
        1.0,
        0.0,
        0.0,
        -1.0,
        2.220446049250313e-16,
        0.0,
        0.0,
        0.0,
        0.0,
        1.0
      ],
      "name": "GLTF_SceneRootNode"
    },
    {
      "children": [
        4,
        5,
        6
      ],
      "matrix": [
        4.008159160614014,
        0.0,
        0.0,
        0.0,
        0.0,
        4.008159160614014,
        0.0,
        0.0,
        0.0,
        0.0,
        4.008159160614014,
        0.0,
        0.0,
        0.0,
        0.0,
        1.0
      ],
      "name": "Classic Sofa Photoscan_1"
    },
    {
      "mesh": 0,
      "name": "Object_4"
    },
    {
      "mesh": 1,
      "name": "Object_5"
    },
    {
      "children": [
        7
      ],
      "name": "Cube.004_0"
    },
    {
      "mesh": 2,
      "name": "Object_7"
    }
  ],
  "samplers": [
    {
      "magFilter": 9729,
      "minFilter": 9987,
      "wrapS": 10497,
      "wrapT": 10497
    }
  ],
  "scene": 0,
  "scenes": [
    {
      "name": "Sketchfab_Scene",
      "nodes": [
        0
      ]
    }
  ],
  "textures": [
    {
      "sampler": 0,
      "source": 0
    },
    {
      "sampler": 0,
      "source": 1
    },
    {
      "sampler": 0,
      "source": 2
    },
    {
      "sampler": 0,
      "source": 3
    },
    {
      "sampler": 0,
      "source": 4
    }
  ]
}
